<?xml version="1.0" standalone="no"?>
<!DOCTYPE svg PUBLIC "-//W3C//DTD SVG 20010904//EN"
 "http://www.w3.org/TR/2001/REC-SVG-20010904/DTD/svg10.dtd">
<svg version="1.0" xmlns="http://www.w3.org/2000/svg"
 width="1280.000000pt" height="1280.000000pt" viewBox="0 0 1280.000000 1280.000000"
 preserveAspectRatio="xMidYMid meet">
<metadata>
Created by potrace 1.15, written by Peter Selinger 2001-2017
</metadata>
<g transform="translate(0.000000,1280.000000) scale(0.100000,-0.100000)"
fill="#000000" stroke="none">
<path d="M6125 12794 c-289 -21 -371 -28 -505 -45 -1600 -200 -3112 -1020
-4120 -2234 -856 -1030 -1367 -2284 -1482 -3635 -17 -201 -17 -759 0 -960 157
-1853 1068 -3524 2515 -4616 878 -663 1944 -1100 3042 -1248 287 -39 468 -50
825 -50 357 0 538 11 825 50 1591 215 3077 1028 4075 2229 856 1030 1367 2284
1482 3635 17 201 17 759 0 960 -168 1978 -1197 3749 -2800 4818 -919 613
-1936 974 -3042 1077 -153 15 -701 27 -815 19z"/>
</g>
</svg>
